<svg width="16" height="16" viewBox="0 0 14 13" fill="none" xmlns="http://www.w3.org/2000/svg">
<path d="M6.12475 0.583826C6.50519 -0.104607 7.49481 -0.104606 7.87525 0.583827L9.28471 3.13436C9.42812 3.39387 9.6793 3.57636 9.97042 3.63256L12.8317 4.18488C13.604 4.33397 13.9098 5.27515 13.3726 5.8497L11.3825 7.97834C11.18 8.19493 11.084 8.4902 11.1205 8.78445L11.4794 11.6763C11.5763 12.4569 10.7757 13.0386 10.0632 12.7053L7.42379 11.4703C7.15524 11.3446 6.84476 11.3446 6.57621 11.4703L3.93676 12.7053C3.22433 13.0386 2.42371 12.4569 2.52058 11.6763L2.87946 8.78445C2.91598 8.4902 2.82004 8.19493 2.61755 7.97834L0.627389 5.8497C0.0902128 5.27515 0.396023 4.33396 1.16832 4.18488L4.02958 3.63256C4.3207 3.57636 4.57188 3.39387 4.71529 3.13436L6.12475 0.583826Z" fill="url(#paint0_linear_7666_762)"/>
<defs>
<linearGradient id="paint0_linear_7666_762" x1="0.832258" y1="-1" x2="14.3548" y2="-1" gradientUnits="userSpaceOnUse">
<stop stop-color="#A02279"/>
<stop stop-color="#A02279"/>
</linearGradient>
</defs>
</svg>
